#define drawMask_width 16
#define drawMask_height 16
#define drawMask_x_hot 1
#define drawMask_y_hot 1
static char drawMask_bits[] = {
   0x00, 0x00, 0x02, 0x00, 0x0c, 0x00, 0x3c, 0x00, 0x78, 0x00, 0xf8, 0x00,
   0xf0, 0x01, 0xe0, 0x03, 0xc0, 0x07, 0x80, 0x0f, 0x00, 0x1f, 0x00, 0x3e,
   0x00, 0x7c, 0x00, 0x38, 0x00, 0x10, 0x00, 0x00};
