#define drawSource_width 16
#define drawSource_height 16
#define drawSource_x_hot 1
#define drawSource_y_hot 1
static char drawSource_bits[] = {
   0xff, 0xff, 0xfd, 0xff, 0xf3, 0xff, 0xcb, 0xff, 0xb7, 0xff, 0x77, 0xff,
   0xef, 0xfe, 0xdf, 0xfd, 0xbf, 0xfb, 0x7f, 0xf7, 0xff, 0xee, 0xff, 0xd5,
   0xff, 0xbb, 0xff, 0xd7, 0xff, 0xef, 0xff, 0xff};
