#define eraseSource_width 16
#define eraseSource_height 16
#define eraseSource_x_hot 8
#define eraseSource_y_hot 7
static char eraseSource_bits[] = {
   0xdf, 0xff, 0xaf, 0xff, 0x77, 0xfe, 0xf7, 0xfd, 0xfb, 0xfb, 0xfd, 0xe7,
   0xf1, 0xdf, 0xed, 0xbf, 0xdd, 0x9f, 0x33, 0xaf, 0xef, 0xae, 0x9f, 0xb1,
   0x7f, 0xd7, 0xff, 0xe6, 0xff, 0xf1, 0xff, 0xff};
