#define eraseMask_width 16
#define eraseMask_height 16
#define eraseMask_x_hot 8
#define eraseMask_y_hot 7
static char eraseMask_bits[] = {
   0x20, 0x00, 0x70, 0x00, 0xf8, 0x01, 0xf8, 0x03, 0xfc, 0x07, 0xfe, 0x1f,
   0xfe, 0x3f, 0xfe, 0x7f, 0xfe, 0x7f, 0xfc, 0x7f, 0xf0, 0x7f, 0xe0, 0x7f,
   0x80, 0x3f, 0x00, 0x1f, 0x00, 0x0e, 0x00, 0x00};
