#define rotateMask_width 16
#define rotateMask_height 16
#define rotateMask_x_hot 4
#define rotateMask_y_hot 2
static char rotateMask_bits[] = {
   0xe0, 0x03, 0xff, 0x03, 0xff, 0x13, 0x7f, 0x3b, 0x7e, 0x77, 0x36, 0x67,
   0x36, 0x67, 0x0e, 0x67, 0x1e, 0x77, 0xfc, 0x3f, 0xf8, 0x1f, 0xf0, 0x07,
   0x00, 0x07, 0x90, 0x03, 0xf0, 0x01, 0xe0, 0x00};
