#define rotateSource_width 16
#define rotateSource_height 16
#define rotateSource_x_hot 4
#define rotateSource_y_hot 2
static char rotateSource_bits[] = {
   0xff, 0xff, 0x3f, 0xfc, 0x21, 0xff, 0xa7, 0xee, 0xab, 0xcc, 0xeb, 0xdd,
   0xfb, 0xdd, 0xfb, 0xdd, 0xf3, 0xcd, 0xe7, 0xe5, 0xcf, 0xf8, 0x3f, 0xfd,
   0xff, 0xfc, 0x6f, 0xfe, 0x1f, 0xff, 0xff, 0xff};
