#define selectMask_width 16
#define selectMask_height 16
#define selectMask_x_hot 2
#define selectMask_y_hot 1
static char selectMask_bits[] = {
   0x00, 0x00, 0x0c, 0x00, 0x1c, 0x00, 0x38, 0x00, 0x78, 0x00, 0xf0, 0x01,
   0xf8, 0x03, 0xfc, 0x07, 0xfe, 0x07, 0xfe, 0x0f, 0xfc, 0x1f, 0xf8, 0x3f,
   0xe0, 0x1f, 0x80, 0x0f, 0x00, 0x0e, 0x00, 0x00};
