#define selectSource_width 16
#define selectSource_height 16
#define selectSource_x_hot 2
#define selectSource_y_hot 1
static char selectSource_bits[] = {
   0xff, 0xff, 0xf3, 0xff, 0xeb, 0xff, 0xd7, 0xff, 0xb7, 0xff, 0x6f, 0xfe,
   0xe7, 0xfc, 0xf3, 0xf9, 0xf9, 0xfb, 0xfd, 0xf3, 0xfb, 0xeb, 0xe7, 0xdd,
   0x9f, 0xee, 0x7f, 0xf6, 0xff, 0xf1, 0xff, 0xff};
