#define xaLogo_width 150
#define xaLogo_height 40
static char xaLogo_bits[] = {
   0x00, 0x00, 0x00, 0x00, 0x00, 0x00, 0x00, 0x00, 0x00, 0x00, 0x00, 0x00,
   0x00, 0x00, 0x00, 0x00, 0x00, 0x00, 0x00, 0x00, 0x00, 0x00, 0x00, 0x00,
   0x00, 0x00, 0x00, 0x00, 0x00, 0x00, 0x00, 0x00, 0x00, 0x00, 0x00, 0x00,
   0x00, 0x00, 0x00, 0x00, 0x00, 0x00, 0x00, 0x00, 0x00, 0x00, 0x00, 0x00,
   0x00, 0x00, 0x00, 0x00, 0x00, 0x00, 0x00, 0x00, 0x00, 0x00, 0x00, 0x00,
   0x00, 0x00, 0x00, 0x00, 0x00, 0x00, 0x00, 0x00, 0x00, 0x00, 0x00, 0x00,
   0x00, 0x00, 0x00, 0x00, 0x00, 0x00, 0x00, 0x00, 0x00, 0x00, 0x00, 0x00,
   0x00, 0x00, 0x00, 0x00, 0x00, 0x00, 0x00, 0x00, 0x00, 0x00, 0x00, 0x30,
   0x8c, 0x01, 0xfe, 0x00, 0x80, 0x1f, 0x00, 0x00, 0x00, 0x00, 0x00, 0x00,
   0x00, 0x00, 0x00, 0x00, 0x00, 0x00, 0x30, 0x8c, 0x01, 0xfe, 0x00, 0x80,
   0x3f, 0x00, 0x00, 0x00, 0x00, 0x00, 0x00, 0x00, 0x00, 0x00, 0x00, 0x00,
   0x00, 0x60, 0x86, 0x01, 0x06, 0x00, 0x80, 0x31, 0x00, 0x00, 0x00, 0x00,
   0x00, 0x00, 0x00, 0x00, 0x00, 0x00, 0x00, 0x00, 0x60, 0x86, 0x01, 0x06,
   0x00, 0x80, 0x31, 0x00, 0x10, 0x00, 0x10, 0x00, 0x00, 0x00, 0x00, 0x00,
   0x00, 0x00, 0x00, 0x40, 0x82, 0x01, 0x06, 0x00, 0x80, 0x31, 0x00, 0x28,
   0x00, 0x11, 0x00, 0x00, 0x00, 0x00, 0x00, 0x00, 0x00, 0x00, 0xc0, 0x83,
   0x01, 0x06, 0x00, 0x80, 0x31, 0x00, 0x44, 0x92, 0x13, 0x18, 0x02, 0x00,
   0x00, 0x00, 0x00, 0x00, 0x00, 0xc0, 0x83, 0x01, 0x3e, 0x00, 0x80, 0x31,
   0x00, 0x44, 0x12, 0x71, 0x24, 0x2e, 0x00, 0x00, 0x00, 0x00, 0x00, 0x00,
   0x80, 0x81, 0x01, 0x3e, 0xf0, 0x81, 0x3f, 0x00, 0x7c, 0x12, 0x91, 0x24,
   0x02, 0x00, 0x00, 0x00, 0x00, 0x00, 0x00, 0xc0, 0x83, 0x01, 0x06, 0xf8,
   0x83, 0x1f, 0x00, 0x44, 0x12, 0x91, 0x24, 0x02, 0x00, 0x00, 0x00, 0x00,
   0x00, 0x00, 0xc0, 0x83, 0x01, 0x06, 0x18, 0x83, 0x01, 0x00, 0x44, 0x0c,
   0x91, 0x18, 0x22, 0x00, 0x00, 0x00, 0x00, 0x00, 0x00, 0x40, 0x82, 0x01,
   0x06, 0x18, 0x83, 0x01, 0x00, 0x00, 0x00, 0x00, 0x00, 0x00, 0x00, 0x00,
   0x00, 0x00, 0x00, 0x00, 0x60, 0x86, 0x01, 0x06, 0x18, 0x83, 0x01, 0x00,
   0x00, 0x00, 0x00, 0x00, 0x00, 0x00, 0x00, 0x00, 0x00, 0x00, 0x00, 0x60,
   0x86, 0x01, 0x06, 0x18, 0x87, 0x01, 0x00, 0x00, 0x00, 0x00, 0x00, 0x00,
   0x00, 0x00, 0x00, 0x00, 0x00, 0x00, 0x30, 0x8c, 0x3f, 0xfe, 0xf8, 0x8f,
   0x01, 0x00, 0x00, 0x00, 0x00, 0x00, 0x00, 0x00, 0x00, 0x00, 0x00, 0x00,
   0x00, 0x30, 0x8c, 0x3f, 0xfe, 0xf0, 0x8d, 0x01, 0x00, 0x00, 0x00, 0x00,
   0x00, 0x00, 0x00, 0x00, 0x00, 0x00, 0x00, 0x00, 0x00, 0x00, 0x00, 0x00,
   0x00, 0x00, 0x00, 0x00, 0x38, 0x02, 0x00, 0x00, 0x00, 0x00, 0x00, 0x00,
   0x00, 0x00, 0x00, 0x00, 0x00, 0x00, 0x00, 0x00, 0x00, 0x00, 0x00, 0x44,
   0x02, 0x10, 0x20, 0x04, 0x00, 0x00, 0x00, 0x00, 0x00, 0x00, 0x00, 0x00,
   0x00, 0x00, 0x00, 0x00, 0x00, 0x00, 0x04, 0x82, 0x00, 0x73, 0xc0, 0x50,
   0x00, 0x00, 0x00, 0x00, 0x00, 0x00, 0x00, 0x00, 0x00, 0x00, 0x00, 0x00,
   0x00, 0x04, 0x8e, 0x93, 0x20, 0x24, 0xb1, 0x00, 0x00, 0x00, 0x00, 0x00,
   0x00, 0x00, 0x22, 0x0e, 0x00, 0x00, 0x00, 0x00, 0x04, 0x92, 0x10, 0x21,
   0x24, 0x91, 0x00, 0x00, 0x00, 0x00, 0x00, 0x00, 0x00, 0x22, 0x11, 0x00,
   0x00, 0x00, 0x00, 0x44, 0x92, 0x10, 0x22, 0x24, 0x91, 0x00, 0x00, 0x00,
   0x00, 0x00, 0x00, 0x00, 0x22, 0x01, 0x00, 0x00, 0x00, 0x00, 0x38, 0x92,
   0x90, 0x21, 0xc4, 0x92, 0x00, 0x00, 0x00, 0x00, 0x00, 0x00, 0x00, 0x22,
   0x01, 0x00, 0x00, 0x00, 0x00, 0x00, 0x00, 0x00, 0x00, 0x00, 0x00, 0x00,
   0x00, 0x00, 0x00, 0x00, 0x00, 0x00, 0x22, 0x01, 0x00, 0x00, 0x00, 0x00,
   0x00, 0x00, 0x00, 0x00, 0x00, 0x00, 0x00, 0x00, 0x00, 0x00, 0x00, 0x00,
   0x00, 0x22, 0x71, 0x7c, 0x00, 0x00, 0x00, 0x00, 0x07, 0x08, 0x00, 0x06,
   0x00, 0x00, 0x00, 0x00, 0x00, 0x00, 0x00, 0x00, 0x1c, 0x8e, 0x04, 0x00,
   0x00, 0x00, 0x80, 0x08, 0x08, 0x00, 0x09, 0x00, 0x04, 0x08, 0x00, 0x00,
   0x00, 0x00, 0x00, 0x00, 0x08, 0x04, 0x00, 0x00, 0x00, 0x80, 0x80, 0x09,
   0x0c, 0x41, 0x61, 0xc0, 0x1c, 0x23, 0x00, 0x00, 0x00, 0x00, 0x00, 0x70,
   0x3c, 0x00, 0x00, 0x00, 0x00, 0x47, 0x38, 0x12, 0xa7, 0x92, 0x24, 0x88,
   0xe4, 0x00, 0x00, 0x00, 0x00, 0x00, 0x80, 0x04, 0x00, 0x00, 0x00, 0x00,
   0x48, 0x48, 0x12, 0xa1, 0x72, 0x44, 0x88, 0x23, 0x00, 0x00, 0x00, 0x00,
   0x00, 0x88, 0x04, 0x00, 0x00, 0x00, 0x80, 0x48, 0x48, 0x12, 0xa1, 0x12,
   0x84, 0x88, 0x20, 0x00, 0x00, 0x00, 0x00, 0x00, 0x70, 0x04, 0x00, 0x00,
   0x00, 0x00, 0x87, 0x49, 0x2c, 0xa1, 0xe2, 0x64, 0x08, 0x27, 0x00, 0x00,
   0x00, 0x00, 0x00, 0x00, 0x00, 0x00, 0x00, 0x00, 0x00, 0x00, 0x00, 0x00,
   0x00, 0x00, 0x00, 0x00, 0x00, 0x00, 0x00, 0x00, 0x00, 0x00, 0x00, 0x00,
   0x00, 0x00, 0x00, 0x00, 0x00, 0x00, 0x00, 0x00, 0x00, 0x00, 0x00, 0x00,
   0x00, 0x00, 0x00, 0x00, 0x00, 0x00, 0x00, 0x00, 0x00, 0x00, 0x00, 0x00,
   0x00, 0x00, 0x00, 0x00, 0x00, 0x00, 0x00, 0x00, 0x00, 0x00, 0x00, 0x00,
   0x00, 0x00, 0x00, 0x00, 0x00, 0x00, 0x00, 0x00, 0x00, 0x00, 0x00, 0x00,
   0x00, 0x00, 0x00, 0x00};
